<mxfile host="drawio-plugin" modified="2022-10-22T13:42:02.125Z" agent="5.0 (X11; Linux x86_64) AppleWebKit/537.36 (KHTML, like Gecko) Chrome/98.0.4758.102 Safari/537.36" etag="rvUHEYaGbRrB11vmWffD" version="15.5.4" type="embed"><diagram id="eLgQQkM9wSsJL46Gbtqx" name="Page-1"><mxGraphModel dx="896" dy="702" grid="1" gridSize="10" guides="1" tooltips="1" connect="1" arrows="1" fold="1" page="1" pageScale="1" pageWidth="1600" pageHeight="1800" background="none" math="0" shadow="0"><root><mxCell id="0"/><mxCell id="1" parent="0"/><mxCell id="W84GfQMh7Le75Ei-E2TC-1" value="File-Spec" style="swimlane;startSize=20;" parent="1" vertex="1"><mxGeometry x="40" y="64" width="764.52" height="1580" as="geometry"/></mxCell><mxCell id="W84GfQMh7Le75Ei-E2TC-3" value="" style="shape=partialRectangle;whiteSpace=wrap;html=1;bottom=1;right=1;left=1;top=0;fillColor=none;routingCenterX=-0.5;rotation=90;" parent="W84GfQMh7Le75Ei-E2TC-1" vertex="1"><mxGeometry x="-531.14" y="631.14" width="1162.27" height="60" as="geometry"/></mxCell><mxCell id="W84GfQMh7Le75Ei-E2TC-4" value="&lt;div&gt;Proposal&lt;/div&gt;" style="text;html=1;strokeColor=none;fillColor=none;align=center;verticalAlign=middle;whiteSpace=wrap;rounded=0;" parent="W84GfQMh7Le75Ei-E2TC-1" vertex="1"><mxGeometry x="20" y="50" width="60" height="30" as="geometry"/></mxCell><mxCell id="W84GfQMh7Le75Ei-E2TC-5" value="" style="shape=partialRectangle;whiteSpace=wrap;html=1;bottom=1;right=1;left=1;top=0;fillColor=none;routingCenterX=-0.5;rotation=90;" parent="W84GfQMh7Le75Ei-E2TC-1" vertex="1"><mxGeometry x="-41.87" y="186.88" width="213.75" height="60" as="geometry"/></mxCell><mxCell id="W84GfQMh7Le75Ei-E2TC-6" value="Author-List" style="text;html=1;strokeColor=none;fillColor=none;align=center;verticalAlign=middle;whiteSpace=wrap;rounded=0;" parent="W84GfQMh7Le75Ei-E2TC-1" vertex="1"><mxGeometry x="35" y="80" width="60" height="30" as="geometry"/></mxCell><mxCell id="W84GfQMh7Le75Ei-E2TC-7" value="" style="shape=partialRectangle;whiteSpace=wrap;html=1;bottom=1;right=1;left=1;top=0;fillColor=none;routingCenterX=-0.5;rotation=90;" parent="W84GfQMh7Le75Ei-E2TC-1" vertex="1"><mxGeometry x="8.75" y="176.25" width="132.5" height="60" as="geometry"/></mxCell><mxCell id="W84GfQMh7Le75Ei-E2TC-8" value="Author" style="text;html=1;strokeColor=none;fillColor=none;align=center;verticalAlign=middle;whiteSpace=wrap;rounded=0;" parent="W84GfQMh7Le75Ei-E2TC-1" vertex="1"><mxGeometry x="45" y="110" width="60" height="30" as="geometry"/></mxCell><mxCell id="W84GfQMh7Le75Ei-E2TC-9" value="Name" style="text;html=1;strokeColor=default;fillColor=none;align=center;verticalAlign=middle;whiteSpace=wrap;rounded=0;" parent="W84GfQMh7Le75Ei-E2TC-1" vertex="1"><mxGeometry x="52.5" y="142.5" width="117.5" height="20" as="geometry"/></mxCell><mxCell id="W84GfQMh7Le75Ei-E2TC-10" value="Mail" style="text;html=1;strokeColor=default;fillColor=none;align=center;verticalAlign=middle;whiteSpace=wrap;rounded=0;" parent="W84GfQMh7Le75Ei-E2TC-1" vertex="1"><mxGeometry x="52.5" y="168" width="117.5" height="20" as="geometry"/></mxCell><mxCell id="W84GfQMh7Le75Ei-E2TC-11" value="&lt;div&gt;Public-Key&lt;/div&gt;" style="text;html=1;strokeColor=default;fillColor=none;align=center;verticalAlign=middle;whiteSpace=wrap;rounded=0;" parent="W84GfQMh7Le75Ei-E2TC-1" vertex="1"><mxGeometry x="52.5" y="194" width="117.5" height="20" as="geometry"/></mxCell><mxCell id="W84GfQMh7Le75Ei-E2TC-12" value="&lt;div&gt;&lt;b&gt;.&lt;/b&gt;&lt;/div&gt;&lt;div&gt;&lt;b&gt;.&lt;/b&gt;&lt;/div&gt;&lt;div&gt;&lt;b&gt;.&lt;br&gt;&lt;/b&gt;&lt;/div&gt;" style="text;html=1;strokeColor=none;fillColor=none;align=center;verticalAlign=middle;whiteSpace=wrap;rounded=0;" parent="W84GfQMh7Le75Ei-E2TC-1" vertex="1"><mxGeometry x="45" y="280" width="60" height="30" as="geometry"/></mxCell><mxCell id="W84GfQMh7Le75Ei-E2TC-15" value="&lt;div&gt;Genesis-Val&lt;/div&gt;" style="text;html=1;strokeColor=default;fillColor=none;align=center;verticalAlign=middle;whiteSpace=wrap;rounded=0;" parent="W84GfQMh7Le75Ei-E2TC-1" vertex="1"><mxGeometry x="35" y="340" width="85" height="30" as="geometry"/></mxCell><mxCell id="W84GfQMh7Le75Ei-E2TC-13" value="" style="shape=partialRectangle;whiteSpace=wrap;html=1;bottom=1;right=1;left=1;top=0;fillColor=none;routingCenterX=-0.5;rotation=90;" parent="W84GfQMh7Le75Ei-E2TC-1" vertex="1"><mxGeometry x="-350.62" y="780.63" width="831.23" height="60" as="geometry"/></mxCell><mxCell id="W84GfQMh7Le75Ei-E2TC-14" value="Addendum" style="text;html=1;strokeColor=none;fillColor=none;align=center;verticalAlign=middle;whiteSpace=wrap;rounded=0;" parent="W84GfQMh7Le75Ei-E2TC-1" vertex="1"><mxGeometry x="35" y="370" width="60" height="30" as="geometry"/></mxCell><mxCell id="W84GfQMh7Le75Ei-E2TC-16" value="" style="shape=partialRectangle;whiteSpace=wrap;html=1;bottom=1;right=1;left=1;top=0;fillColor=none;routingCenterX=-0.5;rotation=90;" parent="W84GfQMh7Le75Ei-E2TC-1" vertex="1"><mxGeometry x="-118.12" y="599.13" width="386.25" height="60" as="geometry"/></mxCell><mxCell id="W84GfQMh7Le75Ei-E2TC-17" value="&lt;div&gt;A 0&lt;/div&gt;&lt;div&gt;[Addendum]&lt;br&gt;&lt;/div&gt;" style="text;html=1;strokeColor=none;fillColor=none;align=center;verticalAlign=middle;whiteSpace=wrap;rounded=0;" parent="W84GfQMh7Le75Ei-E2TC-1" vertex="1"><mxGeometry x="45" y="402" width="60" height="30" as="geometry"/></mxCell><mxCell id="W84GfQMh7Le75Ei-E2TC-18" value="timestamp" style="text;html=1;strokeColor=default;fillColor=none;align=center;verticalAlign=middle;whiteSpace=wrap;rounded=0;" parent="W84GfQMh7Le75Ei-E2TC-1" vertex="1"><mxGeometry x="55" y="487.25" width="185" height="30" as="geometry"/></mxCell><mxCell id="W84GfQMh7Le75Ei-E2TC-21" value="author [Ref]" style="text;html=1;strokeColor=default;fillColor=none;align=center;verticalAlign=middle;whiteSpace=wrap;rounded=0;" parent="W84GfQMh7Le75Ei-E2TC-1" vertex="1"><mxGeometry x="55" y="527.25" width="185" height="30" as="geometry"/></mxCell><mxCell id="W84GfQMh7Le75Ei-E2TC-22" value="type [MIME]" style="text;html=1;strokeColor=default;fillColor=none;align=center;verticalAlign=middle;whiteSpace=wrap;rounded=0;" parent="W84GfQMh7Le75Ei-E2TC-1" vertex="1"><mxGeometry x="55" y="606" width="185" height="30" as="geometry"/></mxCell><mxCell id="W84GfQMh7Le75Ei-E2TC-23" value="data-len (bytes)" style="text;html=1;strokeColor=default;fillColor=none;align=center;verticalAlign=middle;whiteSpace=wrap;rounded=0;" parent="W84GfQMh7Le75Ei-E2TC-1" vertex="1"><mxGeometry x="54" y="646" width="185" height="30" as="geometry"/></mxCell><mxCell id="W84GfQMh7Le75Ei-E2TC-24" value="data [bin]" style="text;html=1;strokeColor=default;fillColor=none;align=center;verticalAlign=middle;whiteSpace=wrap;rounded=0;" parent="W84GfQMh7Le75Ei-E2TC-1" vertex="1"><mxGeometry x="52.5" y="686" width="187.5" height="80" as="geometry"/></mxCell><mxCell id="W84GfQMh7Le75Ei-E2TC-25" value="hash_prev_frame" style="text;html=1;strokeColor=default;fillColor=none;align=center;verticalAlign=middle;whiteSpace=wrap;rounded=0;" parent="W84GfQMh7Le75Ei-E2TC-1" vertex="1"><mxGeometry x="55" y="450" width="185" height="30" as="geometry"/></mxCell><mxCell id="W84GfQMh7Le75Ei-E2TC-26" value="&lt;div&gt;&lt;b&gt;.&lt;/b&gt;&lt;/div&gt;&lt;div&gt;&lt;b&gt;.&lt;/b&gt;&lt;/div&gt;&lt;div&gt;&lt;b&gt;.&lt;br&gt;&lt;/b&gt;&lt;/div&gt;" style="text;html=1;strokeColor=none;fillColor=none;align=center;verticalAlign=middle;whiteSpace=wrap;rounded=0;" parent="W84GfQMh7Le75Ei-E2TC-1" vertex="1"><mxGeometry x="47.5" y="1178" width="60" height="30" as="geometry"/></mxCell><mxCell id="W84GfQMh7Le75Ei-E2TC-27" value="" style="shape=partialRectangle;whiteSpace=wrap;html=1;bottom=1;right=1;left=1;top=0;fillColor=none;routingCenterX=-0.5;rotation=90;" parent="W84GfQMh7Le75Ei-E2TC-1" vertex="1"><mxGeometry x="-68.36" y="987.15" width="288.28" height="60" as="geometry"/></mxCell><mxCell id="W84GfQMh7Le75Ei-E2TC-28" value="&lt;div&gt;V 0&lt;/div&gt;[Vote]" style="text;html=1;strokeColor=none;fillColor=none;align=center;verticalAlign=middle;whiteSpace=wrap;rounded=0;" parent="W84GfQMh7Le75Ei-E2TC-1" vertex="1"><mxGeometry x="45.77" y="841" width="60" height="30" as="geometry"/></mxCell><mxCell id="W84GfQMh7Le75Ei-E2TC-29" value="timestamp" style="text;html=1;strokeColor=default;fillColor=none;align=center;verticalAlign=middle;whiteSpace=wrap;rounded=0;" parent="W84GfQMh7Le75Ei-E2TC-1" vertex="1"><mxGeometry x="55" y="931" width="187.5" height="30" as="geometry"/></mxCell><mxCell id="W84GfQMh7Le75Ei-E2TC-30" value="author [Ref]" style="text;html=1;strokeColor=default;fillColor=none;align=center;verticalAlign=middle;whiteSpace=wrap;rounded=0;" parent="W84GfQMh7Le75Ei-E2TC-1" vertex="1"><mxGeometry x="55" y="969.75" width="187.5" height="30" as="geometry"/></mxCell><mxCell id="W84GfQMh7Le75Ei-E2TC-31" value="hash(frame)" style="text;html=1;strokeColor=default;fillColor=none;align=center;verticalAlign=middle;whiteSpace=wrap;rounded=0;" parent="W84GfQMh7Le75Ei-E2TC-1" vertex="1"><mxGeometry x="55" y="1084.88" width="187.5" height="30" as="geometry"/></mxCell><mxCell id="W84GfQMh7Le75Ei-E2TC-32" value="vote [true / false]" style="text;html=1;strokeColor=default;fillColor=none;align=center;verticalAlign=middle;whiteSpace=wrap;rounded=0;" parent="W84GfQMh7Le75Ei-E2TC-1" vertex="1"><mxGeometry x="55" y="1048" width="187.5" height="30" as="geometry"/></mxCell><mxCell id="W84GfQMh7Le75Ei-E2TC-33" value="sign(hash(frame))" style="text;html=1;strokeColor=default;fillColor=none;align=center;verticalAlign=middle;whiteSpace=wrap;rounded=0;" parent="W84GfQMh7Le75Ei-E2TC-1" vertex="1"><mxGeometry x="55" y="1121.75" width="187.5" height="30" as="geometry"/></mxCell><mxCell id="W84GfQMh7Le75Ei-E2TC-36" value="Symbols" style="swimlane;fontStyle=0;childLayout=stackLayout;horizontal=1;startSize=26;fillColor=none;horizontalStack=0;resizeParent=1;resizeParentMax=0;resizeLast=0;collapsible=1;marginBottom=0;strokeColor=default;" parent="W84GfQMh7Le75Ei-E2TC-1" vertex="1"><mxGeometry x="40" y="1300" width="601" height="260" as="geometry"><mxRectangle x="39.5" y="1140" width="90" height="30" as="alternateBounds"/></mxGeometry></mxCell><mxCell id="W84GfQMh7Le75Ei-E2TC-37" value="Genesis-Val: random number; 256 bit" style="text;strokeColor=none;fillColor=none;align=left;verticalAlign=top;spacingLeft=4;spacingRight=4;overflow=hidden;rotatable=0;points=[[0,0.5],[1,0.5]];portConstraint=eastwest;" parent="W84GfQMh7Le75Ei-E2TC-36" vertex="1"><mxGeometry y="26" width="601" height="26" as="geometry"/></mxCell><mxCell id="W84GfQMh7Le75Ei-E2TC-38" value="Addendum: content of the proposal (initial content or extension)" style="text;strokeColor=none;fillColor=none;align=left;verticalAlign=top;spacingLeft=4;spacingRight=4;overflow=hidden;rotatable=0;points=[[0,0.5],[1,0.5]];portConstraint=eastwest;" parent="W84GfQMh7Le75Ei-E2TC-36" vertex="1"><mxGeometry y="52" width="601" height="26" as="geometry"/></mxCell><mxCell id="W84GfQMh7Le75Ei-E2TC-39" value="Vote: vote for a addendum" style="text;strokeColor=none;fillColor=none;align=left;verticalAlign=top;spacingLeft=4;spacingRight=4;overflow=hidden;rotatable=0;points=[[0,0.5],[1,0.5]];portConstraint=eastwest;" parent="W84GfQMh7Le75Ei-E2TC-36" vertex="1"><mxGeometry y="78" width="601" height="26" as="geometry"/></mxCell><mxCell id="W84GfQMh7Le75Ei-E2TC-47" value="frame: data of current frame until current block" style="text;strokeColor=none;fillColor=none;align=left;verticalAlign=top;spacingLeft=4;spacingRight=4;overflow=hidden;rotatable=0;points=[[0,0.5],[1,0.5]];portConstraint=eastwest;" parent="W84GfQMh7Le75Ei-E2TC-36" vertex="1"><mxGeometry y="104" width="601" height="26" as="geometry"/></mxCell><mxCell id="W84GfQMh7Le75Ei-E2TC-48" value="hash_prev_frame: value of the hash fiel of the previous frame or genesis-val if frame 0" style="text;strokeColor=none;fillColor=none;align=left;verticalAlign=top;spacingLeft=4;spacingRight=4;overflow=hidden;rotatable=0;points=[[0,0.5],[1,0.5]];portConstraint=eastwest;" parent="W84GfQMh7Le75Ei-E2TC-36" vertex="1"><mxGeometry y="130" width="601" height="26" as="geometry"/></mxCell><mxCell id="W84GfQMh7Le75Ei-E2TC-49" value="hash(..): hash-function" style="text;strokeColor=none;fillColor=none;align=left;verticalAlign=top;spacingLeft=4;spacingRight=4;overflow=hidden;rotatable=0;points=[[0,0.5],[1,0.5]];portConstraint=eastwest;" parent="W84GfQMh7Le75Ei-E2TC-36" vertex="1"><mxGeometry y="156" width="601" height="26" as="geometry"/></mxCell><mxCell id="W84GfQMh7Le75Ei-E2TC-50" value="sign(...): sign data with private key of author" style="text;strokeColor=none;fillColor=none;align=left;verticalAlign=top;spacingLeft=4;spacingRight=4;overflow=hidden;rotatable=0;points=[[0,0.5],[1,0.5]];portConstraint=eastwest;" parent="W84GfQMh7Le75Ei-E2TC-36" vertex="1"><mxGeometry y="182" width="601" height="26" as="geometry"/></mxCell><mxCell id="rrvg4pILb6vQvQjK8Mhz-4" value="sign_count: number of frames which were signed by this author" style="text;strokeColor=none;fillColor=none;align=left;verticalAlign=top;spacingLeft=4;spacingRight=4;overflow=hidden;rotatable=0;points=[[0,0.5],[1,0.5]];portConstraint=eastwest;" parent="W84GfQMh7Le75Ei-E2TC-36" vertex="1"><mxGeometry y="208" width="601" height="26" as="geometry"/></mxCell><mxCell id="51wF9CHT5SO9664aPXCB-3" value="type: one byte to identify the frame type" style="text;strokeColor=none;fillColor=none;align=left;verticalAlign=top;spacingLeft=4;spacingRight=4;overflow=hidden;rotatable=0;points=[[0,0.5],[1,0.5]];portConstraint=eastwest;" parent="W84GfQMh7Le75Ei-E2TC-36" vertex="1"><mxGeometry y="234" width="601" height="26" as="geometry"/></mxCell><mxCell id="W84GfQMh7Le75Ei-E2TC-40" value="hash of target addendum" style="text;html=1;strokeColor=default;fillColor=none;align=center;verticalAlign=middle;whiteSpace=wrap;rounded=0;" parent="W84GfQMh7Le75Ei-E2TC-1" vertex="1"><mxGeometry x="55" y="1009.75" width="187.5" height="30" as="geometry"/></mxCell><mxCell id="W84GfQMh7Le75Ei-E2TC-53" value="hash(frame)" style="text;html=1;strokeColor=default;fillColor=none;align=center;verticalAlign=middle;whiteSpace=wrap;rounded=0;" parent="W84GfQMh7Le75Ei-E2TC-1" vertex="1"><mxGeometry x="52.5" y="775" width="187.5" height="30" as="geometry"/></mxCell><mxCell id="W84GfQMh7Le75Ei-E2TC-54" value="hash_prev_frame" style="text;html=1;strokeColor=default;fillColor=none;align=center;verticalAlign=middle;whiteSpace=wrap;rounded=0;" parent="W84GfQMh7Le75Ei-E2TC-1" vertex="1"><mxGeometry x="55" y="891" width="185" height="30" as="geometry"/></mxCell><mxCell id="rrvg4pILb6vQvQjK8Mhz-1" value="sign_count [u32]" style="text;html=1;strokeColor=default;fillColor=none;align=center;verticalAlign=middle;whiteSpace=wrap;rounded=0;" parent="W84GfQMh7Le75Ei-E2TC-1" vertex="1"><mxGeometry x="52.5" y="220" width="117.5" height="17.5" as="geometry"/></mxCell><mxCell id="rrvg4pILb6vQvQjK8Mhz-2" value="sign(hash(frame))" style="text;html=1;strokeColor=default;fillColor=none;align=center;verticalAlign=middle;whiteSpace=wrap;rounded=0;" parent="W84GfQMh7Le75Ei-E2TC-1" vertex="1"><mxGeometry x="52.5" y="242" width="117.5" height="20" as="geometry"/></mxCell><mxCell id="rrvg4pILb6vQvQjK8Mhz-3" value="&lt;div&gt;Spec-Version&lt;/div&gt;" style="text;html=1;strokeColor=default;fillColor=none;align=center;verticalAlign=middle;whiteSpace=wrap;rounded=0;" parent="W84GfQMh7Le75Ei-E2TC-1" vertex="1"><mxGeometry x="18" y="25" width="111" height="26" as="geometry"/></mxCell><mxCell id="51wF9CHT5SO9664aPXCB-1" value="type: 1" style="rounded=0;whiteSpace=wrap;html=1;" parent="W84GfQMh7Le75Ei-E2TC-1" vertex="1"><mxGeometry x="120" y="402" width="58" height="20" as="geometry"/></mxCell><mxCell id="51wF9CHT5SO9664aPXCB-2" value="type: 2" style="rounded=0;whiteSpace=wrap;html=1;" parent="W84GfQMh7Le75Ei-E2TC-1" vertex="1"><mxGeometry x="120" y="852.24" width="58" height="20" as="geometry"/></mxCell><mxCell id="2" value="number_of_authors [u16]" style="rounded=0;whiteSpace=wrap;html=1;" parent="W84GfQMh7Le75Ei-E2TC-1" vertex="1"><mxGeometry x="119" y="80" width="161" height="25" as="geometry"/></mxCell><mxCell id="5" value="title [string]" style="rounded=0;whiteSpace=wrap;html=1;" vertex="1" parent="W84GfQMh7Le75Ei-E2TC-1"><mxGeometry x="55" y="566" width="185" height="30" as="geometry"/></mxCell><mxCell id="W84GfQMh7Le75Ei-E2TC-56" value="Function-Spec" style="swimlane;fontStyle=0;childLayout=stackLayout;horizontal=1;startSize=30;horizontalStack=0;resizeParent=1;resizeParentMax=0;resizeLast=0;collapsible=1;marginBottom=0;strokeColor=default;fillColor=none;" parent="1" vertex="1"><mxGeometry x="880" y="60" width="600" height="240" as="geometry"/></mxCell><mxCell id="W84GfQMh7Le75Ei-E2TC-57" value="Author eines Addendum muss dieses positiv voten&#10;(dadurch kann die Signatur des Addendum entfallen)&#10;" style="text;strokeColor=none;fillColor=none;align=left;verticalAlign=middle;spacingLeft=4;spacingRight=4;overflow=hidden;points=[[0,0.5],[1,0.5]];portConstraint=eastwest;rotatable=0;" parent="W84GfQMh7Le75Ei-E2TC-56" vertex="1"><mxGeometry y="30" width="600" height="30" as="geometry"/></mxCell><mxCell id="W84GfQMh7Le75Ei-E2TC-58" value="Proposal gilt als akzeptiert,wenn all Authoren den neusten Addendum zustimmen" style="text;strokeColor=none;fillColor=none;align=left;verticalAlign=middle;spacingLeft=4;spacingRight=4;overflow=hidden;points=[[0,0.5],[1,0.5]];portConstraint=eastwest;rotatable=0;" parent="W84GfQMh7Le75Ei-E2TC-56" vertex="1"><mxGeometry y="60" width="600" height="30" as="geometry"/></mxCell><mxCell id="W84GfQMh7Le75Ei-E2TC-59" value="es kann nur für das neuste Addendum gevotet werden" style="text;strokeColor=none;fillColor=none;align=left;verticalAlign=middle;spacingLeft=4;spacingRight=4;overflow=hidden;points=[[0,0.5],[1,0.5]];portConstraint=eastwest;rotatable=0;" parent="W84GfQMh7Le75Ei-E2TC-56" vertex="1"><mxGeometry y="90" width="600" height="30" as="geometry"/></mxCell><mxCell id="mJlwZxc-TxNMeydgzM5t-5" value="File kann optional verschlüsselt sein" style="text;strokeColor=none;fillColor=none;align=left;verticalAlign=middle;spacingLeft=4;spacingRight=4;overflow=hidden;points=[[0,0.5],[1,0.5]];portConstraint=eastwest;rotatable=0;" parent="W84GfQMh7Le75Ei-E2TC-56" vertex="1"><mxGeometry y="120" width="600" height="30" as="geometry"/></mxCell><mxCell id="rrvg4pILb6vQvQjK8Mhz-5" value="durch Author::sign_count kann sichergestellt werden, dass keine Frames gelöscht wurden" style="text;strokeColor=none;fillColor=none;align=left;verticalAlign=middle;spacingLeft=4;spacingRight=4;overflow=hidden;points=[[0,0.5],[1,0.5]];portConstraint=eastwest;rotatable=0;" parent="W84GfQMh7Le75Ei-E2TC-56" vertex="1"><mxGeometry y="150" width="600" height="30" as="geometry"/></mxCell><mxCell id="rrvg4pILb6vQvQjK8Mhz-6" value="bei Öffnen der Datei muss die Integrität aller Frames und der Chain (also auch zeitliche Reihenfolge)&#10;geprüft werden" style="text;strokeColor=none;fillColor=none;align=left;verticalAlign=middle;spacingLeft=4;spacingRight=4;overflow=hidden;points=[[0,0.5],[1,0.5]];portConstraint=eastwest;rotatable=0;" parent="W84GfQMh7Le75Ei-E2TC-56" vertex="1"><mxGeometry y="180" width="600" height="30" as="geometry"/></mxCell><mxCell id="rrvg4pILb6vQvQjK8Mhz-7" value="es muss nach dem Öffnen sichergestellt werden, dass der Timestamp des letzten Frames in der Vergangenheit&#10;liegt" style="text;strokeColor=none;fillColor=none;align=left;verticalAlign=middle;spacingLeft=4;spacingRight=4;overflow=hidden;points=[[0,0.5],[1,0.5]];portConstraint=eastwest;rotatable=0;" parent="W84GfQMh7Le75Ei-E2TC-56" vertex="1"><mxGeometry y="210" width="600" height="30" as="geometry"/></mxCell><mxCell id="3" value="Hint: all bytes are stored in big-endian order" style="text;html=1;strokeColor=none;fillColor=none;align=center;verticalAlign=middle;whiteSpace=wrap;rounded=0;" parent="1" vertex="1"><mxGeometry x="40" y="1680" width="240" height="30" as="geometry"/></mxCell><mxCell id="4" value="Hint: strings are stored 0-terminated" style="text;html=1;strokeColor=none;fillColor=none;align=center;verticalAlign=middle;whiteSpace=wrap;rounded=0;" parent="1" vertex="1"><mxGeometry x="40" y="1710" width="200" height="30" as="geometry"/></mxCell></root></mxGraphModel></diagram></mxfile>